<?xml version="1.0" encoding="UTF-8"?>
<svg width="1281px" height="538px" viewBox="0 0 1281 538" version="1.1" xmlns="http://www.w3.org/2000/svg" xmlns:xlink="http://www.w3.org/1999/xlink">
    <!-- Generator: Sketch 52.2 (67145) - http://www.bohemiancoding.com/sketch -->
    <title>Group 10</title>
    <desc>Created with Sketch.</desc>
    <defs>
        <rect id="path-1" x="0" y="0" width="325" height="275"></rect>
    </defs>
    <g id="V1.--Mid-fi-Wireframe" stroke="none" stroke-width="1" fill="none" fill-rule="evenodd">
        <g id="desktop-landing-page-copy" transform="translate(0.000000, -2232.000000)">
            <g id="Group-10" transform="translate(-11.000000, 2232.000000)">
                <polygon id="Fill-1" fill="#2A304A" opacity="0.0163504464" points="0 538 1307 538 1307 1 0 1"></polygon>
                <path d="M1304.73052,0.381824941 L1112.00302,0.381824941 L1086.29494,61.8981873 C1057.91791,113.125477 1054.77582,175.591933 1077.85498,229.679707 C1096.14338,272.539792 1154.59951,270.75438 1170.49069,226.851105 C1190.83297,170.646343 1250.90988,142.7123 1304.15185,164.699646 L1304.73052,0.381824941 Z" id="Fill-2" fill="#6AC2BF"></path>
                <path d="M-93.1739389,198.173939 L-80.8974786,212.121045 C-31.8479516,267.842379 47.4497222,280.242438 109.804379,241.941174 L181.056654,198.173939 L-93.1739389,198.173939 Z" id="Fill-8" fill="#DE8173" transform="translate(43.941358, 231.115297) rotate(-90.000000) translate(-43.941358, -231.115297) "></path>
                <path d="M1242,94 C1219.90873,94 1202,76.0912739 1202,54 C1202,31.9079194 1219.90873,14 1242,14 C1264.09208,14 1282,31.9079194 1282,54 C1282,76.0912739 1264.09208,94 1242,94 Z" id="Fill-9" fill="#F6D061"></path>
                <g id="Fill-12" transform="translate(1060.000000, 263.000000)">
                    <mask id="mask-2" fill="white">
                        <use xlink:href="#path-1"></use>
                    </mask>
                    <use id="Mask" fill="#FCFCFC" fill-rule="nonzero" xlink:href="#path-1"></use>
                    <path d="M158.925646,122.111223 C158.366379,121.514386 97.156374,44.8896137 96.5934676,44.296602 C86.2524889,43.980329 74.2883017,44.0185879 63.9473231,43.7023149 C52.0243833,43.3363055 37.5877753,44.4203055 32.0193694,55.5089879 C31.2684231,57.001082 30.7273536,58.7380326 31.1458939,60.3665831 C32.0060246,63.7129549 36.0604065,64.6018349 39.3529236,64.7727243 C51.818146,65.4180231 64.3488791,64.6898302 76.6709486,62.603449 C80.4754194,61.9594255 84.4970459,61.2095526 88.0807216,62.7003714 C91.663184,64.1911902 94.3078736,68.9327337 92.3097985,72.3964326 C78.5695446,74.2762161 65.0828411,78.1926443 52.3713471,83.9939573 C46.0095344,86.897802 39.4548291,90.6624702 36.2702832,97.1384137 C33.0869505,103.614357 35.1966363,113.329548 41.8702313,115.315181 C45.9294658,116.52416 50.2070691,114.629073 53.8938634,112.468724 C70.0046326,103.034098 84.2192322,87.2956937 102.649564,86.6185126 C106.282979,86.4833314 110.493859,87.3467055 112.231104,90.7032796 C115.130558,96.3120231 108.839108,102.143943 103.440545,105.064367 C93.1929792,110.606795 82.7027818,115.950277 73.8685483,123.727021 C65.0318884,131.502489 57.8706029,142.158847 56.6477373,154.202724 C56.4245158,156.410258 56.4402869,158.791233 57.5891497,160.653162 C59.5750932,163.872004 63.931552,164.151294 67.5443434,163.604193 C88.4386039,160.437637 104.714363,142.005811 125.345368,137.297426 C134.064351,135.307967 145.441368,137.561411 147.969595,146.556061 C149.61464,152.409661 146.506523,158.815463 141.942614,162.589058 C137.378705,166.361378 131.61862,168.070273 126.021098,169.694997 C116.781669,172.375666 107.541026,175.056334 98.2991711,177.737002 C89.8810515,180.17919 77.2593314,188.752993 73.8394324,197.199266 C71.3912749,203.247986 69.3228365,210.879346 73.4124,215.852993 C75.9127234,218.894569 80.0374686,219.859967 83.8613499,219.817882 C101.501914,219.617661 115.384108,202.42032 132.917914,200.367096 C141.647816,199.345586 149.301645,199.957727 157.843507,202.109148 C161.873625,203.121731 166.611016,205.627684 166.503045,209.981538 C166.398713,214.263976 161.734112,216.51232 157.838654,217.764658 C146.161986,221.514023 134.486531,225.264663 122.811076,229.015303 C112.063688,232.467524 100.611455,236.41711 93.7534593,245.776494 C92.3959329,247.629496 91.231299,249.724804 90.9085983,252.040738 C89.7548828,260.276588 99.8738532,265.871303 107.564077,263.881844 C115.253087,261.892386 121.090814,255.540146 127.649159,250.87512 C137.030528,244.198955 148.488827,240.810498 159.8064,241.365251 C164.974463,241.61776 171.608024,244.798343 170.530737,250.11887 C169.914452,253.169374 166.937356,254.921628 164.253846,256.253035 C157.042821,259.827684 149.740809,263.195736 142.353875,266.349538 C139.802599,267.43864 137.059644,268.662922 135.669362,271.161223 C134.653947,272.98872 134.542336,275.197529 134.456202,277.310691 C134.25967,282.160635 134.061925,287.010578 133.865393,291.859247 C133.809587,293.217435 133.786537,294.691675 134.548402,295.788428 C135.364859,296.961698 136.847341,297.360866 138.220638,297.544508 C156.545425,300.007101 172.78115,279.27592 190.902126,283.049515 C181.492854,289.000037 172.870924,296.107251 165.943778,305.063642 C162.660966,309.309096 159.657181,315.411378 162.624571,319.90679 C164.938068,323.411298 169.881697,323.838522 173.681315,322.340051 C177.482146,320.842856 180.578131,317.900753 184.013801,315.629454 C189.136977,312.242273 195.133629,310.329331 201.183659,310.149515 C202.889363,310.099778 204.686053,310.210729 206.13578,311.156997 C209.516858,313.364531 209.207502,318.82279 207.156048,322.408917 C205.103381,325.993769 201.829061,328.717797 200.037223,332.453134 C198.244172,336.187195 198.803439,341.829096 202.565449,343.193661 C207.458125,344.970146 214.676429,343.743313 218.621626,340.219675 C221.393697,337.745604 224.447222,333.97456 227.834366,335.367181 C229.377506,336.001002 230.3541,337.582367 231.176622,339.096141 C233.709701,343.756066 236.980381,345.980178 238.562343,351.085181 C233.401558,325.523186 224.738381,300.91256 216.105532,276.407783 C208.676138,255.31952 201.247957,234.231256 193.818563,213.142993 C188.464887,197.947863 183.107571,182.741256 176.899829,167.90831 C165.937712,141.704842 152.318774,116.734583 136.385127,93.5242302 C128.419516,81.9177784 119.876441,70.7449267 110.78987,60.088569 C99.1277596,46.4110396 99.2138939,41.174682 97.0156474,22.9213973 C96.0851534,15.2033173 97.1733583,6.0696608 103.412642,1.88797138 C110.161453,-2.63422156 119.758764,1.50410785 124.027875,8.61769844 C128.2982,15.7325643 128.493519,24.6940561 127.835986,33.0778396 C127.178453,41.4603479 125.808795,49.9691102 127.422298,58.2075102 C132.045652,62.9337502 139.858405,57.9881596 143.177611,52.1766443 C146.496818,46.365129 148.919499,38.9569455 154.999859,36.6996749 C163.171707,33.6657502 171.487921,43.5798867 170.750319,52.6574302 C170.011505,61.7336984 163.518671,69.0462349 156.915439,74.9444702 C154.119104,77.4414961 151.106827,80.0188655 149.881535,83.6534537 C148.65503,87.288042 150.194531,92.2463855 153.79883,92.9605502 C157.332766,93.6606867 160.226153,90.2199431 162.492337,87.2867667 C167.688303,80.5659667 173.82932,74.6537031 180.653347,69.8024843 C184.135117,67.329689 188.039067,65.0596655 192.239028,65.1604137 C200.429074,65.356809 206.195225,75.2046302 204.821927,83.6942631 C203.44863,92.1838961 196.885432,98.8294537 189.630734,102.831327 C183.573424,106.170047 176.634147,108.270456 171.958627,113.519567 C167.285533,118.767402 166.647411,128.898338 172.810266,132.016433 C181.054903,136.18792 187.813419,124.554687 194.621675,118.127204 C202.13963,111.028917 214.729808,110.184673 222.33147,117.186037 C229.933133,124.186127 230.292229,138.539562 222.363013,145.125181 C213.5676,152.430066 196.953369,151.29888 194.990476,162.90023 C193.480091,171.826014 204.069768,178.291755 212.61163,177.038141 C221.153492,175.785802 228.468849,170.071209 236.685583,167.312748 C244.899892,164.553011 256.036704,166.326946 258.879139,174.88672 C261.355199,182.34464 255.859583,190.296098 249.414062,194.35536 C242.968541,198.415896 235.358386,200.262522 229.261042,204.877811 C223.162485,209.494376 218.972229,218.728781 223.144288,225.297821 C241.523667,221.918291 258.159735,209.285228 266.987902,192.006268 C272.649722,190.974555 277.775324,195.00831 280.680843,200.219162 C286.7333,211.07064 283.007684,225.730146 274.706028,234.78856 C266.404372,243.849524 254.573633,248.309228 242.90667,251.108498 C237.595454,252.382517 231.177836,254.38728 229.982873,259.975618 C228.666594,266.125087 235.459078,271.282376 241.449664,271.012014 C247.441463,270.740376 252.761171,267.154249 258.346561,264.863821 C264.168518,262.47392 270.669844,261.471538 276.712596,263.151101 C282.754134,264.829388 288.219421,269.482936 290.091328,275.751007 C290.492884,277.097717 290.703974,278.656127 289.985783,279.849802 C289.411958,280.803722 288.366214,281.311289 287.349585,281.677298 C282.091748,283.572386 276.364419,282.956418 270.81421,282.618466 C265.265215,282.281788 259.374108,282.331524 254.596683,285.319538 C249.82047,288.306277 246.85308,295.218371 249.724631,300.22135 C257.730276,302.255444 266.200561,302.238866 274.20014,300.17799 C278.477744,299.076136 283.374059,297.503698 286.969866,300.17799 C292.43394,304.241077 288.78718,314.20495 282.558815,316.778494 C276.329237,319.350762 269.36691,317.414866 262.710299,316.705802 C258.105142,316.216089 253.160301,316.422687 249.290319,319.093153 C245.422764,321.762343 243.235436,327.573858 245.667823,331.712188 C248.100209,335.851793 255.532029,335.307242 256.375176,330.523614 C259.613101,332.514348 262.851026,334.505082 266.08895,336.495816 C257.776376,343.531614 245.581688,345.05559 235.932211,340.265586 L158.925646,122.111223 Z" fill="#8DA73C" mask="url(#mask-2)"></path>
                </g>
            </g>
        </g>
    </g>
</svg>