<?xml version="1.0" encoding="UTF-8"?>
<svg width="1281px" height="720px" viewBox="0 0 1281 720" version="1.1" xmlns="http://www.w3.org/2000/svg" xmlns:xlink="http://www.w3.org/1999/xlink">
    <!-- Generator: Sketch 52.2 (67145) - http://www.bohemiancoding.com/sketch -->
    <title>Group 4</title>
    <desc>Created with Sketch.</desc>
    <defs>
        <polygon id="path-1" points="0 670 1283 670 1283 0 0 0"></polygon>
        <polygon id="path-3" points="0 0 265 0 265 278 0 278"></polygon>
    </defs>
    <g id="V1.--Mid-fi-Wireframe" stroke="none" stroke-width="1" fill="none" fill-rule="evenodd">
        <g id="desktop-landing-page-copy">
            <g id="Group-4" transform="translate(0.000000, -1.000000)">
                <g id="Group-3">
                    <polygon id="Fill-1" fill="#2A304A" points="0 670 1320 670 1320 1 0 1"></polygon>
                    <g id="Group-13">
                        <path d="M1283,1 L1115.09662,1 L1092.69985,51.7828051 C1067.9779,94.0718051 1065.24053,145.638929 1085.347,190.289308 C1101.27977,225.671038 1152.2065,224.19715 1166.05083,187.954249 C1183.77293,141.55626 1236.11168,118.496232 1282.49586,136.647161 L1283,1 Z" id="Fill-2" fill="#6AC2BF"></path>
                        <mask id="mask-2" fill="white">
                            <use xlink:href="#path-1"></use>
                        </mask>
                        <g id="Clip-5"></g>
                        <path d="M9.32643452,-52 L205.087244,151.0432 C246.416917,193.911056 268.350096,251.729774 265.800081,311.089641 L265.758183,312.065893 C264.398429,343.675581 234.285776,366.116091 203.432305,358.510809 C144.014473,343.859458 93.4807486,305.091857 64.116532,251.629305 L-71,5.64242358 L9.32643452,-52 Z" id="Fill-6" fill="#7C4786" mask="url(#mask-2)"></path>
                        <path d="M989.105863,256.384685 C911.142226,256.384685 847.937872,193.411716 847.937872,115.731941 C847.937872,100.087046 850.540962,85.0574571 855.271323,71 C799.325757,89.692421 759,142.309852 759,204.347255 C759,282.027031 822.201823,345 900.166726,345 C962.429563,345 1015.23801,304.821067 1034,249.077935 C1019.89117,253.792334 1004.80666,256.384685 989.105863,256.384685" id="Fill-7" fill="#FFD361" mask="url(#mask-2)" transform="translate(896.500000, 208.000000) scale(-1, 1) translate(-896.500000, -208.000000) "></path>
                        <path d="M217,1 L227.430693,12.2198871 C269.10562,57.0454634 336.480882,67.020813 389.460511,36.2089837 L450,1 L217,1 Z" id="Fill-8" fill="#DE8173" mask="url(#mask-2)"></path>
                        <path d="M73,476 C73,501.404965 52.4058927,522 27,522 C1.59503499,522 -19,501.404965 -19,476 C-19,450.594107 1.59503499,430 27,430 C52.4058927,430 73,450.594107 73,476" id="Fill-9" fill="#F6882F" mask="url(#mask-2)"></path>
                        <path d="M649.836434,688.649067 C650.556144,634.703795 640.703723,580.638154 621,530.393107 C688.857205,559.406439 735.576855,631.797112 733.950803,705.409304 C741.698856,625.71626 735.747842,544.714762 716.434147,467 C788.334689,524.248727 824.011715,623.306655 805.069051,713.097303 C839.046268,647.636751 876.048722,583.738764 915.919957,521.673058 C931.844088,596.108885 909.790133,660.420361 858.484011,716.767436 C804.030837,710.549497 745.927707,717.944375 691.474533,711.727551 C673.908705,709.721404 649.601746,706.280864 649.836434,688.649067 L1560,878 L649.836434,688.649067 Z" id="Fill-11" fill="#8DA73C" mask="url(#mask-2)"></path>
                        <path d="M1228.83821,482.43011 C1228.32304,481.909916 1171.93969,415.12504 1171.42117,414.608181 C1161.89561,414.332523 1150.87485,414.365869 1141.3493,414.09021 C1130.36653,413.771203 1117.0683,414.715999 1111.93899,424.38071 C1111.24726,425.681194 1110.74885,427.195092 1111.13439,428.614509 C1111.9267,431.531151 1115.66137,432.305884 1118.69426,432.454828 C1130.17655,433.01726 1141.71919,432.382579 1153.06962,430.564124 C1156.57409,430.002804 1160.2786,429.349227 1163.57968,430.6486 C1166.87966,431.947973 1169.3158,436.080623 1167.47528,439.099526 C1154.8185,440.737914 1142.39528,444.151407 1130.68613,449.207735 C1124.82597,451.738678 1118.78813,455.0199 1115.8547,460.664225 C1112.92239,466.308549 1114.86572,474.776148 1121.01307,476.506792 C1124.75222,477.560518 1128.69252,475.908792 1132.08859,474.025868 C1146.92897,465.802805 1160.02269,452.085474 1176.99972,451.495254 C1180.34662,451.377432 1184.22546,452.129935 1185.82572,455.055469 C1188.49654,459.943956 1182.70119,465.026961 1177.72833,467.572353 C1168.28882,472.403041 1158.62582,477.060332 1150.4882,483.838412 C1142.34834,490.615381 1135.75175,499.903285 1134.62531,510.400528 C1134.41969,512.324578 1134.43422,514.399795 1135.49249,516.022622 C1137.32184,518.828111 1141.33477,519.071535 1144.66268,518.594691 C1163.90935,515.834774 1178.9017,499.769902 1197.90587,495.666151 C1205.93733,493.932172 1216.41722,495.896237 1218.74609,503.735823 C1220.26141,508.837724 1217.39838,514.420914 1213.19436,517.709917 C1208.99033,520.997808 1203.68445,522.487252 1198.52831,523.903335 C1190.01745,526.239761 1181.50547,528.576187 1172.99237,530.912613 C1165.23805,533.041183 1153.6116,540.513967 1150.46138,547.875598 C1148.20627,553.147561 1146.30093,559.798928 1150.06802,564.133876 C1152.37118,566.784863 1156.17067,567.626288 1159.69303,567.589607 C1175.94256,567.415098 1188.73009,552.426181 1204.88129,550.636626 C1212.9228,549.746294 1219.9731,550.279826 1227.8414,552.154969 C1231.55373,553.03752 1235.91756,555.221667 1235.8181,559.016414 C1235.722,562.748915 1231.42522,564.708534 1227.83693,565.800052 C1217.08101,569.067936 1206.32621,572.336931 1195.57141,575.605926 C1185.6715,578.614825 1175.12232,582.057218 1168.8051,590.214701 C1167.55462,591.829747 1166.48183,593.655983 1166.18457,595.674513 C1165.12183,602.852742 1174.44288,607.729003 1181.5267,605.995023 C1188.6094,604.261044 1193.9868,598.724538 1200.028,594.658579 C1208.66961,588.839745 1219.22438,585.886422 1229.64951,586.369936 C1234.41005,586.590018 1240.52053,589.362161 1239.52819,593.999444 C1238.96051,596.658212 1236.21817,598.185448 1233.74626,599.34588 C1227.10385,602.461485 1220.37763,605.397023 1213.57319,608.145824 C1211.22309,609.095067 1208.69643,610.162131 1207.41577,612.339609 C1206.48043,613.932424 1206.37762,615.857586 1206.29828,617.699383 C1206.11724,621.926513 1205.93509,626.153643 1205.75406,630.379662 C1205.70265,631.563436 1205.68142,632.848359 1206.38321,633.804271 C1207.13528,634.826874 1208.50087,635.174781 1209.76587,635.334841 C1226.64568,637.481196 1241.60115,619.412243 1258.29322,622.701246 C1249.62591,627.887622 1241.68385,634.082152 1235.30294,641.888393 C1232.27899,645.58866 1229.51206,650.907308 1232.24546,654.825434 C1234.37653,657.879905 1238.93033,658.252266 1242.43034,656.946224 C1245.93146,655.641293 1248.78331,653.077005 1251.94807,651.097378 C1256.66726,648.145168 1262.19105,646.47788 1267.76401,646.321155 C1269.33522,646.277805 1270.99023,646.374508 1272.32564,647.19926 C1275.44011,649.12331 1275.15515,653.880637 1273.26546,657.006246 C1271.37465,660.130743 1268.35852,662.504961 1266.70798,665.760618 C1265.05632,669.015163 1265.57148,673.932551 1269.03684,675.121883 C1273.54371,676.670237 1280.19283,675.60095 1283.82693,672.529806 C1286.38041,670.373447 1289.19315,667.086667 1292.31321,668.300453 C1293.73467,668.852881 1294.63425,670.231172 1295.39192,671.550552 C1297.72525,675.612065 1300.73803,677.550565 1302.19524,682 C1297.44141,659.72059 1289.46135,638.270378 1281.50924,616.912423 C1274.66568,598.532244 1267.82324,580.152064 1260.97968,561.771885 C1256.04817,548.528063 1251.1133,535.274237 1245.39506,522.346088 C1235.29735,499.507582 1222.75232,477.74392 1208.0751,457.514162 C1200.73761,447.398172 1192.86819,437.660101 1184.49813,428.372197 C1173.75562,416.45109 1173.83496,411.887167 1171.81006,395.977908 C1170.95294,389.250958 1171.95533,381.290215 1177.70262,377.645524 C1183.91926,373.704056 1192.75979,377.310955 1196.69226,383.511043 C1200.62586,389.712241 1200.80577,397.522928 1200.20009,404.830094 C1199.59441,412.136149 1198.33275,419.552245 1199.81902,426.732697 C1204.07781,430.852009 1211.2745,426.541515 1214.33197,421.476295 C1217.38944,416.411075 1219.62109,409.954225 1225.22199,407.986826 C1232.74945,405.342508 1240.4099,413.983504 1239.73046,421.89534 C1239.04991,429.806064 1233.06906,436.179549 1226.98652,441.320353 C1224.41068,443.496719 1221.63594,445.743111 1220.50726,448.910958 C1219.37747,452.078805 1220.79558,456.400414 1224.11566,457.022868 C1227.37094,457.633096 1230.03617,454.634201 1232.12365,452.077693 C1236.9099,446.219956 1242.56667,441.066925 1248.8526,436.838684 C1252.05982,434.683436 1255.65592,432.704922 1259.5247,432.792732 C1267.06893,432.963907 1272.3804,441.547104 1271.11539,448.946527 C1269.85038,456.345949 1263.80472,462.138107 1257.12208,465.626073 C1251.54241,468.536046 1245.15033,470.366727 1240.84349,474.941765 C1236.53889,479.515691 1235.95108,488.345646 1241.62797,491.063325 C1249.22249,494.699124 1255.44807,484.559792 1261.71947,478.957705 C1268.6446,472.770956 1280.242,472.035127 1287.24424,478.1374 C1294.24648,484.238561 1294.57726,496.748776 1287.27329,502.488692 C1279.17143,508.855508 1263.8673,507.869585 1262.05919,517.981129 C1260.6679,525.760694 1270.42254,531.396126 1278.29085,530.303497 C1286.15915,529.211979 1292.89766,524.231235 1300.46647,521.827006 C1308.03305,519.421666 1318.29168,520.967797 1320.90998,528.428354 C1323.19079,534.928553 1318.12853,541.858912 1312.19126,545.396897 C1306.254,548.935993 1299.24393,550.545481 1293.62739,554.56809 C1288.00972,558.591811 1284.14989,566.640365 1287.99296,572.365831 C1304.92306,569.420289 1320.2473,558.409521 1328.37934,543.349467 C1333.5947,542.450243 1338.31613,545.965997 1340.99254,550.507689 C1346.56773,559.965656 1343.1359,572.742638 1335.48886,580.637801 C1327.84182,588.535187 1316.94398,592.42219 1306.197,594.861988 C1301.3046,595.972401 1295.39303,597.719719 1294.2923,602.590422 C1293.07981,607.950196 1299.33668,612.445204 1304.85489,612.20956 C1310.37421,611.972806 1315.27444,608.847197 1320.4194,606.850898 C1325.78227,604.7679 1331.77094,603.894241 1337.3372,605.358119 C1342.90234,606.820887 1347.93667,610.876842 1349.66097,616.339988 C1350.03086,617.513758 1350.2253,618.872042 1349.56374,619.912429 C1349.03517,620.74385 1348.07188,621.186237 1347.13542,621.505245 C1342.29219,623.156971 1337.01648,622.620105 1331.90392,622.325551 C1326.79249,622.032108 1321.36592,622.075457 1316.96521,624.679761 C1312.56562,627.282953 1309.83222,633.307419 1312.47734,637.667932 C1319.85171,639.440814 1327.65408,639.426365 1335.02286,637.63014 C1338.96316,636.669782 1343.47338,635.299272 1346.78564,637.63014 C1351.81886,641.171459 1348.45966,649.855805 1342.72242,652.098863 C1336.98407,654.340809 1330.57075,652.653514 1324.43904,652.035506 C1320.19702,651.60868 1315.6421,651.788747 1312.07728,654.116281 C1308.51469,656.442703 1306.49984,661.507923 1308.74043,665.114822 C1310.98101,668.722832 1317.8268,668.248211 1318.60346,664.07888 C1321.58607,665.813971 1324.56867,667.549062 1327.55127,669.284153 C1319.89417,675.416437 1308.66109,676.744709 1299.77251,672.569821 L1228.83821,482.43011 Z" id="Fill-12" fill="#8DA73C" mask="url(#mask-2)"></path>
                    </g>
                    <g id="Group" transform="translate(712.000000, 157.000000)">
                        <path d="M233,115.499156 C233,132.897034 222.477562,147 209.498329,147 C203.337956,147 197.729109,143.81987 193.539186,138.619243 C188.901358,132.864963 186,124.636122 186,115.499156 C186,98.102966 196.520767,84 209.498329,84 C222.477562,84 233,98.102966 233,115.499156" id="Fill-1" fill="#BC906C"></path>
                        <g id="Group-5" transform="translate(160.000000, 0.000000)">
                            <mask id="mask-4" fill="white">
                                <use xlink:href="#path-3"></use>
                            </mask>
                            <g id="Clip-4"></g>
                            <path d="M95.4338089,38.7139314 C96.274176,52.9701899 86.6083574,65.343034 76.7460272,75.0570401 C66.8836969,84.7693495 55.6969098,94.3645818 51.8241918,108.043939 C47.657505,102.397089 38.2792645,103.391396 34.4241207,109.28258 C30.5705745,115.175461 32.198586,123.940973 37.1928585,128.771676 C46.5902709,137.854484 57.9432141,128.174413 67.1744703,134.746002 C70.4736298,137.096028 72.8110005,140.667728 74.8639884,144.278454 C80.0883234,153.464765 85.8063341,166.954083 82.4512566,177.932183 C81.0485147,182.521945 74.8224494,196.001083 70.2787158,197.687672 C68.9526614,198.178038 67.514771,198.169554 66.1312009,198.417283 C62.3687211,199.094294 59.1190889,201.67508 56.6043784,204.727569 C54.8597381,206.848531 53.3595392,209.257944 51.2043013,210.900417 C49.050661,212.544586 45.9432202,213.235172 43.784787,211.599486 C42.2574279,210.440592 41.5608499,208.433314 40.94735,206.551596 C39.0509324,200.72998 36.9260499,194.597854 32.3823164,190.769942 C30.6616409,189.319204 28.6358132,188.246845 27.1739579,186.504263 C21.5885527,179.846139 23.5776344,168.231751 18.8693423,160.47412 C13.8463119,152.197278 5.57045402,146.367177 3.4599505,136.132263 C0.932458764,123.868012 9.39204709,112.553952 14.932718,101.465563 C22.1892713,86.9480017 24.8653451,70.2331241 32.1921953,55.7562856 C37.3030968,45.6588095 44.6746814,36.8814202 53.4633868,30.2368704 C57.1395932,27.4609553 65.1294706,25.1737098 67.7879702,21.6834547 C71.1494383,17.2735504 68.8072747,11.4146049 74.6738674,7.25242898 C78.8868861,4.26272089 84.0313383,3.24465911 89.0176226,2.29446812 C100.744417,0.0598225164 123.194679,-2.92309849 133.120915,6.37519908 C136.75079,9.77552542 139.094551,14.7640281 143.3555,17.2039829 C146.867147,19.2146549 151.054604,19.1298164 155.008802,19.6795697 C169.088944,21.6376419 181.616165,32.9703663 185.679004,47.4183596 C187.299027,53.1788925 187.818265,59.6384945 191.571159,64.1400243 C196.583006,70.1550727 206.020359,70.9067416 209.964972,77.7582974 C213.943135,84.6658466 210.463441,93.2854363 212.244827,100.739345 C214.598174,110.575519 219.728248,114.193032 219.314455,124.701126 C218.875099,135.859083 216.83649,146.229739 210.751019,155.582333 C225.401524,158.526229 234.498577,178.295291 227.686172,192.381873 C235.791081,192.442957 241.88454,200.976011 243.216985,209.46495 C244.551028,217.953888 242.504431,226.570084 241.59856,235.121803 C240.695884,243.675219 241.227904,253.180522 246.647153,259.579041 C250.270637,263.856597 256.263444,269.07586 253.116062,273.758944 C252.163859,275.177444 250.566203,275.925719 249.005293,276.468685 C240.120728,279.563593 229.884546,277.895669 222.282899,272.113078 C216.365182,267.609851 213.772186,261.76957 210.965105,254.95195 C207.455054,246.422289 207.066824,246.247522 198.500193,241.33707 C194.517236,239.053218 190.462386,236.713373 187.338968,233.234995 C183.146719,228.565485 181.017044,222.295922 178.195583,216.582898 C170.899088,201.817609 160.864211,195.680393 148.362553,188.143342 C135.907227,180.63344 131.198935,162.374502 132.127173,147.161266 C132.799787,136.137353 136.495165,125.53424 137.447368,114.532386 C138.976325,96.8554396 133.357369,79.3871962 126.728694,63.0897239 C125.118257,59.1328572 123.387995,55.1166035 120.540972,52.0420569 C114.198278,45.1955914 99.6020934,47.2368053 95.4338089,38.7139314" id="Fill-3" fill="#074F57" mask="url(#mask-4)"></path>
                        </g>
                        <path d="M86.059159,525.70938 C86.059159,525.70938 80.8892261,452.398356 167.209359,433.060185 L363.944727,433.060185 C363.944727,433.060185 423.755561,429.38929 444,479.385618 L351.063424,532.630305 L225.501692,482.814348 L125.625553,543 L86.059159,525.70938 Z" id="Fill-6" fill="#96694A"></path>
                        <path d="M197.108188,383 C197.108188,383 169.254719,403.782145 165,448.281016 L262.389495,473 L376,457.407096 C376,457.407096 376,415.960324 339.303259,383" id="Fill-8" fill="#2D5481"></path>
                        <path d="M481.844571,523.089084 L469.228019,494.291001 C463.089559,480.280581 450.203644,470.37868 435.074155,468.046953 L357.429073,456.082436 L349.789877,480.439372 C337.163287,477.191669 324.24893,474.978618 311.160575,473.890479 L273.610397,470.773152 L249.003018,457.359453 C238.626695,451.703135 226.794808,449.274461 215.026498,450.386001 L204.047873,451.422324 L187.076344,443.084938 C172.38185,435.865777 154.761173,438.366324 142.659924,449.389794 C139.118054,452.614096 141.651068,458.531167 146.425984,458.145053 C168.49533,456.349874 180.031084,471.719214 180.031084,471.719214 L261.027307,515.415278 C301.145633,537.059388 345.001577,550.927732 390.279623,556.284854 C403.66411,557.869425 417.160692,557.884469 430.494987,556.350042 C438.549102,558.006487 446.7906,558.842232 455.094001,558.793759 C461.754456,559.642875 468.48518,557.849367 473.837302,553.796007 C483.290096,546.640363 486.601083,533.943733 481.844571,523.089084" id="Fill-10" fill="#A87956"></path>
                        <path d="M402.742252,421 L390.328149,426.566829 C373.379314,434.16827 354.242507,435.389037 336.461274,430.00232 C322.653154,425.823029 308.231601,434.38674 305.331578,448.48893 L303.950933,455.199811 L228.585446,468.841712 L226.08658,468.576546 C212.815006,467.175666 199.560148,467.976169 186.810077,470.801276 L186.810077,470.799608 L182.196785,469.161913 C150.375095,457.859815 114.864444,466.461884 91.7812664,491.065669 C75.2519732,508.681732 78.0918224,536.799391 97.8103048,550.771499 C105.367078,556.124861 114.403114,559 123.669815,559 L157.291691,559 L296.760215,505.134505 C327.945069,495.074854 357.963228,481.718132 386.303219,465.292817 L417,447.501644 L402.742252,421 Z" id="Fill-12" fill="#B5855D"></path>
                        <path d="M220.578174,176 C159.853239,202.600112 117.529494,259.059677 109.060726,324.761852 L102.630022,374.647518 C100.392673,392.003346 94.7440366,408.746793 86.0073225,423.915784 L37,509 L79.2132168,509 L124.417381,462.835471 C141.852292,445.029559 156.592671,424.735639 167.777741,402.474066 C171.691428,394.685443 175.296976,386.739543 178.586013,378.654769 L205.018885,322.439487 L350.250639,322.439487 L357.11508,350.742889 C366.739365,390.425544 383.648432,427.981595 406.983179,461.503625 L440.042691,509 L488,509 L445.227446,409.662019 C439.764697,396.970998 436.314892,383.506972 435.006981,369.753486 L431.552152,333.450641 C424.860201,263.088678 379.386416,202.357501 313.716202,176.080312 L313.516917,176 L220.578174,176 Z" id="Fill-14" fill="#BC8861"></path>
                        <path d="M177,202.378564 L177,335 L364,329.282783 L364,204.682791 C364,204.682791 325.560832,176 313.419324,176 L220.402035,176 C220.402035,176 192.959613,187.892946 177,202.378564" id="Fill-16" fill="#4075A0"></path>
                        <path d="M233.547431,139 L226.249581,171.740353 C222.780274,187.302594 226.62545,203.616325 236.659163,215.913124 L257.746093,241.755273 C261.30022,246.112565 267.906205,246.075496 271.413764,241.67945 L290.694526,217.513831 C303.056633,202.020673 305.49313,180.695887 296.952915,162.75112 L285.648564,139 L233.547431,139 Z" id="Fill-18" fill="#BC8861"></path>
                        <path d="M316,105.999168 C316,143.554525 292.942671,174 264.500837,174 C250.996069,174 238.707751,167.136492 229.52163,155.908173 C219.361681,143.487937 213,125.724054 213,105.999168 C213,68.4438107 236.059002,38 264.500837,38 C292.942671,38 316,68.4438107 316,105.999168" id="Fill-20" fill="#BC906C"></path>
                        <path d="M295.342008,159.675779 C286.595596,168.355908 275.677371,173.518588 263.827885,173.518588 C250.80714,173.518588 238.912021,167.285596 229.788711,157 L227,169.099824 C227.491827,169.741017 227.985345,170.378896 228.497453,170.995237 C237.774565,182.17055 250.188553,189 263.827885,189 C277.888058,189 290.636692,181.729833 300,169.936523 C299.367892,168.175313 298.664799,166.430672 297.824806,164.722481 L295.342008,159.675779 Z" id="Fill-22" fill="#A87956"></path>
                        <path d="M177,334.791434 L193.324998,377.035136 C196.81124,386.056604 205.438012,392 215.048642,392 L321.179564,392 C330.409725,392 338.773353,386.512489 342.502626,378.007692 L364,329 L177,334.791434 Z" id="Fill-24" fill="#34608C"></path>
                        <path d="M12.8804575,495.384764 C12.8804575,487.99595 18.8444692,481.985684 26.172688,481.985684 C32.0161808,481.985684 36.9775422,485.807485 38.7568699,491.098949 C38.4723113,494.183386 38.4254429,497.392686 38.4438555,500.529431 C36.4385549,505.372065 31.694797,508.783844 26.172688,508.783844 C18.8444692,508.783844 12.8804575,502.773578 12.8804575,495.384764 M84,496.430908 C84,483.777628 80.1534384,461.356399 48.3950342,473.522042 C46.7194867,474.163227 45.3469103,475.123317 44.1818943,476.287574 C39.4850049,471.78578 33.1510671,469 26.172688,469 C11.7405496,469 0,480.836613 0,495.384764 C0,509.932915 11.7405496,521.769529 26.172688,521.769529 C26.3584879,521.769529 26.5375924,521.744219 26.7217185,521.740844 L7.90235737,537.127598 C5.14046589,539.386931 4.71864974,543.475329 6.95829265,546.259422 C8.23211048,547.842137 10.0901102,548.662179 11.9631748,548.662179 C13.3893151,548.662179 14.8238248,548.18804 16.0172967,547.212763 L44.0278979,524.310646 C44.5501465,524.923147 45.1075464,525.503588 45.6900544,526.058719 L32.9753104,548.191414 C31.1909611,551.294412 32.2421537,555.264698 35.3204073,557.061703 C36.3364486,557.653955 37.4462268,557.935739 38.5409402,557.935739 C40.7638443,557.935739 42.9264891,556.774857 44.1199609,554.696068 L57.1962617,531.933999 C58.5219696,532.176974 59.8794811,532.323772 61.2738178,532.323772 C62.5844609,532.323772 63.8683219,532.055486 65.1187055,531.588096 L62.5024411,556.833914 C62.132515,560.39924 64.7002371,563.591666 68.2371321,563.964566 C68.4647789,563.988189 68.6907518,564 68.9150509,564 C72.1707351,564 74.9661041,561.517939 75.310922,558.182089 L79.907379,513.840769 C82.4851444,507.756261 84,501.307289 84,496.430908" id="Fill-26" fill="#BC906C"></path>
                        <path d="M494.82616,481.984228 C502.155906,481.984228 508.118125,487.996288 508.118125,495.383546 C508.118125,502.772491 502.155906,508.784551 494.82616,508.784551 C489.304161,508.784551 484.562171,505.371024 482.556911,500.529991 C482.576997,497.394878 482.526781,494.182146 482.242229,491.097654 C484.021521,485.807783 488.984457,481.984228 494.82616,481.984228 M513.096126,537.128808 L494.278814,521.741781 C494.462936,521.743468 494.642037,521.768779 494.82616,521.768779 C509.258011,521.768779 521,509.931955 521,495.383546 C521,480.835136 509.258011,469 494.82616,469 C487.84792,469 481.515782,471.784142 476.818986,476.286016 C475.652319,475.121739 474.283118,474.161631 472.60593,473.520435 C440.846485,461.354576 437,483.776203 437,496.431396 C437,501.306176 438.516499,507.753575 441.092539,513.839879 L445.690579,558.181986 C446.03539,561.519582 448.830703,564 452.086322,564 C452.310617,564 452.534912,563.989876 452.762554,563.964565 C456.299378,563.591659 458.868723,560.400863 458.498804,556.833786 L455.880918,531.587521 C457.131277,532.056606 458.415112,532.323209 459.725729,532.323209 C461.120038,532.323209 462.48087,532.178096 463.804878,531.935117 L476.879244,554.69759 C478.072692,556.776416 480.235294,557.937319 482.458154,557.937319 C483.554519,557.937319 484.664275,557.65553 485.678623,557.06158 C488.756815,555.26623 489.807987,551.294187 488.025347,548.191133 L475.310856,526.058045 C475.893352,525.502904 476.449067,524.922453 476.971306,524.309941 L504.981349,547.212465 C506.174797,548.187759 507.610952,548.663594 509.03539,548.663594 C510.908417,548.663594 512.768054,547.84185 514.040172,546.260795 C516.27977,543.474965 515.857963,539.388181 513.096126,537.128808" id="Fill-28" fill="#BC906C"></path>
                        <path d="M251.455357,51.3490041 C256.143459,53.6284895 262.579895,52.5462412 265.906119,56.5657789 C267.259559,58.2043704 267.774272,60.4009962 269.051771,62.1004641 C273.923819,68.5939537 284.538708,63.6629601 292.161514,66.4277662 C301.601846,69.8503763 302.654897,82.9895466 309.656673,90.1983346 C314.997869,95.6975086 323.599473,97.1230325 331.006269,95.1682215 C338.411377,93.2151016 344.743183,88.3399114 350,82.7595688 C342.994849,85.7763358 335.606616,78.9277336 332.425525,71.9844346 C329.244433,65.0428266 327.388093,56.7703915 321.064725,52.5022749 C316.241617,49.245384 309.695487,49.0695187 305.282461,45.2731947 C302.356195,42.7569675 300.822183,39.026593 298.5777,35.886382 C293.906474,29.3506172 286.189163,25.525546 278.325032,23.9326118 C270.84567,22.4174642 249.901094,19.3043095 244.659466,26.9037215 C240.374696,33.1181939 245.01217,48.2172482 251.455357,51.3490041" id="Fill-30" fill="#074F57"></path>
                    </g>
                </g>
            </g>
        </g>
    </g>
</svg>