<?xml version="1.0" encoding="UTF-8"?>
<svg width="353px" height="316px" viewBox="0 0 353 316" version="1.1" xmlns="http://www.w3.org/2000/svg" xmlns:xlink="http://www.w3.org/1999/xlink">
    <!-- Generator: Sketch 52.2 (67145) - http://www.bohemiancoding.com/sketch -->
    <title>Group 2</title>
    <desc>Created with Sketch.</desc>
    <g id="V1.--Mid-fi-Wireframe" stroke="none" stroke-width="1" fill="none" fill-rule="evenodd">
        <g id="desktop-landing-page-copy" transform="translate(-750.000000, -1243.000000)">
            <g id="Group-2" transform="translate(750.000000, 1243.000000)">
                <path d="M12.819426,-5.17920154e-16 L340.180574,5.17920154e-16 C344.638168,-3.00926524e-16 346.254599,0.464128056 347.884229,1.33566352 C349.513858,2.20719898 350.792801,3.48614185 351.664336,5.11577148 C352.535872,6.74540111 353,8.3618323 353,12.819426 L353,87.180574 C353,91.6381677 352.535872,93.2545989 351.664336,94.8842285 C350.792801,96.5138581 349.513858,97.792801 347.884229,98.6643365 C346.254599,99.5358719 344.638168,100 340.180574,100 L12.819426,100 C8.3618323,100 6.74540111,99.5358719 5.11577148,98.6643365 C3.48614185,97.792801 2.20719898,96.5138581 1.33566352,94.8842285 C0.464128056,93.2545989 2.00617683e-16,91.6381677 -3.45280103e-16,87.180574 L3.45280103e-16,12.819426 C-2.00617683e-16,8.3618323 0.464128056,6.74540111 1.33566352,5.11577148 C2.20719898,3.48614185 3.48614185,2.20719898 5.11577148,1.33566352 C6.74540111,0.464128056 8.3618323,3.00926524e-16 12.819426,-5.17920154e-16 Z" id="Rectangle-14-Copy" fill="#DDDCEA" opacity="0.200000018"></path>
                <path d="M12.819426,108 L340.180574,108 C344.638168,108 346.254599,108.464128 347.884229,109.335664 C349.513858,110.207199 350.792801,111.486142 351.664336,113.115771 C352.535872,114.745401 353,116.361832 353,120.819426 L353,195.180574 C353,199.638168 352.535872,201.254599 351.664336,202.884229 C350.792801,204.513858 349.513858,205.792801 347.884229,206.664336 C346.254599,207.535872 344.638168,208 340.180574,208 L12.819426,208 C8.3618323,208 6.74540111,207.535872 5.11577148,206.664336 C3.48614185,205.792801 2.20719898,204.513858 1.33566352,202.884229 C0.464128056,201.254599 2.00617683e-16,199.638168 -3.45280103e-16,195.180574 L3.45280103e-16,120.819426 C-2.00617683e-16,116.361832 0.464128056,114.745401 1.33566352,113.115771 C2.20719898,111.486142 3.48614185,110.207199 5.11577148,109.335664 C6.74540111,108.464128 8.3618323,108 12.819426,108 Z" id="Rectangle-14-Copy-2" fill="#DDDCEA" opacity="0.200000018"></path>
                <path d="M12.819426,216 L340.180574,216 C344.638168,216 346.254599,216.464128 347.884229,217.335664 C349.513858,218.207199 350.792801,219.486142 351.664336,221.115771 C352.535872,222.745401 353,224.361832 353,228.819426 L353,303.180574 C353,307.638168 352.535872,309.254599 351.664336,310.884229 C350.792801,312.513858 349.513858,313.792801 347.884229,314.664336 C346.254599,315.535872 344.638168,316 340.180574,316 L12.819426,316 C8.3618323,316 6.74540111,315.535872 5.11577148,314.664336 C3.48614185,313.792801 2.20719898,312.513858 1.33566352,310.884229 C0.464128056,309.254599 2.00617683e-16,307.638168 -3.45280103e-16,303.180574 L3.45280103e-16,228.819426 C-2.00617683e-16,224.361832 0.464128056,222.745401 1.33566352,221.115771 C2.20719898,219.486142 3.48614185,218.207199 5.11577148,217.335664 C6.74540111,216.464128 8.3618323,216 12.819426,216 Z" id="Rectangle-14-Copy-3" fill="#DDDCEA" opacity="0.200000018"></path>
                <path d="M7,30 L7,30 C8.65685425,30 10,31.3431458 10,33 L10,67 C10,68.6568542 8.65685425,70 7,70 L7,70 C5.34314575,70 4,68.6568542 4,67 L4,33 C4,31.3431458 5.34314575,30 7,30 Z" id="Rectangle-15-Copy-5" fill="#074F57"></path>
                <path d="M7,138 L7,138 C8.65685425,138 10,139.343146 10,141 L10,175 C10,176.656854 8.65685425,178 7,178 L7,178 C5.34314575,178 4,176.656854 4,175 L4,141 C4,139.343146 5.34314575,138 7,138 Z" id="Rectangle-15-Copy-6" fill="#7C4786"></path>
                <path d="M7,246 L7,246 C8.65685425,246 10,247.343146 10,249 L10,283 C10,284.656854 8.65685425,286 7,286 L7,286 C5.34314575,286 4,284.656854 4,283 L4,249 C4,247.343146 5.34314575,246 7,246 Z" id="Rectangle-15-Copy-7" fill="#387A9D"></path>
                <text id="SPIRITUAL-Guided-Med" font-family="Lato-Regular, Lato" font-size="12" font-weight="normal" line-spacing="18" letter-spacing="0.8" fill="#4A5969">
                    <tspan x="28.418" y="29.2399902">SPIRITUAL</tspan>
                    <tspan x="92.106" y="28" font-family="Lato-Italic, Lato" font-size="16" font-style="italic"> </tspan>
                    <tspan x="26" y="45.8959961" font-family="Lato-Medium, Lato" font-size="16" font-weight="400">Guided Meditation</tspan>
                    <tspan x="157.704" y="43.6200562" font-family="Lato-Semibold, Lato" font-size="18" font-weight="500"> </tspan>
                    <tspan x="172.554" y="47.2399902" font-family="Lato-Semibold, Lato" font-size="16" font-weight="500"></tspan>
                    <tspan x="34.976" y="65.2399902" font-family="Lato-Semibold, Lato" font-weight="500">20 min</tspan>
                </text>
                <text id="JOURNAL-Gratitude-Jo" font-family="Lato-Regular, Lato" font-size="12" font-weight="normal" line-spacing="18" letter-spacing="0.8" fill="#4A5969">
                    <tspan x="28.418" y="137.23999">JOURNAL</tspan>
                    <tspan x="87.02" y="136" font-family="Lato-Italic, Lato" font-size="16" font-style="italic"> </tspan>
                    <tspan x="26" y="153.895996" font-family="Lato-Medium, Lato" font-size="16" font-weight="400">Gratitude Journal</tspan>
                    <tspan x="147.816" y="151.620056" font-family="Lato-Semibold, Lato" font-size="18" font-weight="500"> </tspan>
                    <tspan x="162.666" y="155.23999" font-family="Lato-Semibold, Lato" font-size="16" font-weight="500"></tspan>
                    <tspan x="34.976" y="173.23999" font-family="Lato-Semibold, Lato" font-weight="500">Free time </tspan>
                </text>
                <text id="FITNESS-Stretching-2" font-family="Lato-Regular, Lato" font-size="12" font-weight="normal" line-spacing="18" letter-spacing="0.8" fill="#4A5969">
                    <tspan x="28.418" y="247.23999">FITNESS</tspan>
                    <tspan x="78.896" y="245" font-family="Lato-Italic, Lato" font-size="16" font-style="italic"> </tspan>
                    <tspan x="26" y="262.895996" font-family="Lato-Medium, Lato" font-size="16" font-weight="400">Stretching</tspan>
                    <tspan x="107.408" y="265.23999" font-family="Lato-Semibold, Lato" font-size="16" font-weight="500"></tspan>
                    <tspan x="34.976" y="283.23999" font-family="Lato-Semibold, Lato" font-weight="500">20 min</tspan>
                </text>
                <path d="M273,0 L343,0 C348.522847,-1.01453063e-15 353,4.4771525 353,10 L353,90 C353,95.5228475 348.522847,100 343,100 L273,100 L273,0 Z" id="Rectangle-2" fill="#074F57"></path>
                <path d="M273,108 L343,108 C348.522847,108 353,112.477153 353,118 L353,198 C353,203.522847 348.522847,208 343,208 L273,208 L273,108 Z" id="Rectangle-2-Copy" fill="#7C4786"></path>
                <path d="M273,216 L343,216 C348.522847,216 353,220.477153 353,226 L353,306 C353,311.522847 348.522847,316 343,316 L273,316 L273,216 Z" id="Rectangle-2-Copy-2" fill="#387A9D"></path>
                <path d="M333.760433,51.9077865 L304.789571,73.4401837 C303.459787,74.4285365 301.580566,74.151752 300.592214,72.8219683 C300.207659,72.304568 300,71.6770561 300,71.0323973 L300,27.9676027 C300,26.3107485 301.343146,24.9676027 303,24.9676027 C303.644659,24.9676027 304.272171,25.1752621 304.789571,25.5598163 L333.760433,47.0922135 C335.090217,48.0805663 335.367001,49.9597873 334.378648,51.289571 C334.203871,51.524726 333.995588,51.7330091 333.760433,51.9077865 Z" id="Triangle-2" fill="#FFFFFF"></path>
                <path d="M333.760433,159.907786 L304.789571,181.440184 C303.459787,182.428536 301.580566,182.151752 300.592214,180.821968 C300.207659,180.304568 300,179.677056 300,179.032397 L300,135.967603 C300,134.310748 301.343146,132.967603 303,132.967603 C303.644659,132.967603 304.272171,133.175262 304.789571,133.559816 L333.760433,155.092214 C335.090217,156.080566 335.367001,157.959787 334.378648,159.289571 C334.203871,159.524726 333.995588,159.733009 333.760433,159.907786 Z" id="Triangle-2-Copy" fill="#FFFFFF"></path>
                <path d="M333.760433,267.907786 L304.789571,289.440184 C303.459787,290.428536 301.580566,290.151752 300.592214,288.821968 C300.207659,288.304568 300,287.677056 300,287.032397 L300,243.967603 C300,242.310748 301.343146,240.967603 303,240.967603 C303.644659,240.967603 304.272171,241.175262 304.789571,241.559816 L333.760433,263.092214 C335.090217,264.080566 335.367001,265.959787 334.378648,267.289571 C334.203871,267.524726 333.995588,267.733009 333.760433,267.907786 Z" id="Triangle-2-Copy-2" fill="#FFFFFF"></path>
            </g>
        </g>
    </g>
</svg>